<?xml version="1.0" encoding="UTF-8" standalone="no"?><!DOCTYPE svg PUBLIC "-//W3C//DTD SVG 1.1//EN" "http://www.w3.org/Graphics/SVG/1.1/DTD/svg11.dtd"><svg width="100%" height="100%" viewBox="0 0 512 512" version="1.1" xmlns="http://www.w3.org/2000/svg" xmlns:xlink="http://www.w3.org/1999/xlink" xml:space="preserve" xmlns:serif="http://www.serif.com/" style="fill-rule:evenodd;clip-rule:evenodd;stroke-linejoin:round;stroke-miterlimit:2;"><path d="M103.841,86.37l3.319,1.144l300,148l2.849,1.871l2.31,2.507l1.63,2.994l0.855,3.3l0.027,3.409l-0.802,3.313l-1.583,3.019l-2.269,2.543l-2.82,1.917l-302,155l-3.349,1.207l-3.547,0.318l-3.511,-0.591l-3.246,-1.463l-2.769,-2.239l-2.111,-2.867l-1.314,-3.31l-0.432,-3.534l2,-303l0.465,-3.479l1.321,-3.253l2.093,-2.818l2.731,-2.206l3.196,-1.452l3.457,-0.607l3.5,0.277Zm-4.841,316.63l302,-155l-300,-148l-2,303Z" style="fill:#fff;"/></svg>